<?xml version="1.0" encoding="UTF-8" standalone="no"?>
<!DOCTYPE svg PUBLIC "-//W3C//DTD SVG 1.1//EN" "http://www.w3.org/Graphics/SVG/1.1/DTD/svg11.dtd">
<svg width="100%" height="100%" viewBox="0 0 120 120" version="1.1" xmlns="http://www.w3.org/2000/svg" xmlns:xlink="http://www.w3.org/1999/xlink" xml:space="preserve" xmlns:serif="http://www.serif.com/" style="fill-rule:evenodd;clip-rule:evenodd;stroke-linejoin:round;stroke-miterlimit:2;">
    <g id="FINAL" transform="matrix(0.256087,0,0,0.256087,-186.995,-78.287)">
        <g id="Main-circle" serif:id="Main circle">
            <g transform="matrix(1.34287,0,0,1.34287,-36.7077,-32.6056)">
                <path d="M875.39,337.89C892.641,363.1 902.724,393.584 902.724,426.404C902.724,513.139 832.306,583.557 745.571,583.557C658.836,583.557 588.418,513.139 588.418,426.404C588.418,402.535 593.751,379.901 603.318,359.638C598.133,374.684 595.341,390.839 595.341,407.641C595.341,489.722 661.98,556.361 744.061,556.361C826.141,556.361 892.78,489.722 892.78,407.641C892.78,382.434 886.495,358.684 875.39,337.89Z" style="fill:rgb(244,174,18);"/>
            </g>
            <g transform="matrix(1.27081,0,0,1.27081,14.9924,-27.0739)">
                <path d="M596.848,375.679C623.364,319.258 680.736,280.167 747.167,280.167C804.139,280.167 854.448,308.918 884.348,352.698C896.083,374.67 902.724,399.768 902.724,426.404C902.724,513.139 832.306,583.557 745.571,583.557C658.836,583.557 588.418,513.139 588.418,426.404C588.418,408.65 591.369,391.579 596.848,375.679Z" style="fill:rgb(254,207,3);"/>
            </g>
        </g>
        <g id="Left-wing" serif:id="Left wing" transform="matrix(0.9976,0,0,0.9976,-19.3653,106.122)">
            <path d="M894.216,625.42C863.442,602.259 843.536,565.435 843.536,523.999C843.536,453.97 900.391,397.115 970.42,397.115C1040.45,397.115 1097.3,453.97 1097.3,523.999C1097.3,581.206 1059.36,629.621 1007.29,645.414C1000.37,646.113 993.339,646.465 986.229,646.465C953.258,646.465 922.038,638.905 894.216,625.42Z" style="fill:rgb(42,43,45);"/>
        </g>
        <g id="Belly" transform="matrix(0.996248,0,0,0.996248,4.411,2.02626)">
            <g transform="matrix(1.01629,0,0,1.01629,85.8464,171.251)">
                <path d="M862.534,571.24C793.748,557.106 741.951,496.162 741.951,423.215C741.951,339.809 893.072,272.094 893.072,272.094L1031.85,483.079C1031.85,483.079 1002.08,518.532 964.606,545.233C934.736,561.833 900.353,571.272 863.782,571.272L862.534,571.24Z" style="fill:rgb(249,168,6);"/>
            </g>
            <g transform="matrix(0.77766,0,0,0.808938,262.901,254.28)">
                <path d="M826.138,558.685C790.663,531.947 767.881,490.374 767.881,443.727C767.881,363.063 836.003,297.575 919.911,297.575C952.182,297.575 982.118,307.262 1006.72,323.802C1014.83,332.953 1021.78,343.14 1027.43,354.107C1012.08,364.715 998.62,377.695 987.692,392.521C962.141,421.328 946.743,458.691 946.743,499.485C946.743,520.61 950.873,540.815 958.456,559.38C938.702,568.99 916.506,574.336 893.072,574.336C869.035,574.336 846.3,568.711 826.138,558.685Z" style="fill:white;"/>
            </g>
        </g>
        <g id="Head-black" serif:id="Head black" transform="matrix(1.00809,0,0,1.00393,-4.23584,4.73764)">
            <path d="M970.42,397.115C1040.45,397.115 1097.3,453.97 1097.3,523.999C1097.3,550.637 1089.08,575.37 1075.03,595.791C1052.14,629.055 843.536,594.028 843.536,523.999C843.536,453.97 900.391,397.115 970.42,397.115Z" style="fill:rgb(38,39,41);"/>
        </g>
        <g id="Head-yellow" serif:id="Head yellow" transform="matrix(1,0,0,1.51549,0,-262.036)">
            <g transform="matrix(1.20141,0,0,1.29763,-33.601,-74.75)">
                <path d="M789.239,454.899C766.209,468.684 750.028,491.434 746.482,517.799C736.478,502.501 731.234,483.703 731.234,463.5C731.234,459.262 732.245,449.34 732.245,449.34L789.239,454.899Z" style="fill:rgb(249,168,6);"/>
            </g>
            <g id="Head-yellow1" serif:id="Head yellow" transform="matrix(0.996248,0,0,0.996248,-33.5668,39.9166)">
                <path d="M951.739,470.173L1018.65,484.463L1100.25,515.205C1100.25,515.205 1127.68,610.794 994.778,609.15C935.319,608.414 906.859,584.745 900.176,559.342C896.664,545.991 885.883,508.736 951.739,470.173Z" style="fill:rgb(254,207,3);"/>
            </g>
        </g>
        <g id="Right-wing" serif:id="Right wing" transform="matrix(0.993042,0,0,1.00652,8.13656,-5.16066)">
            <path d="M1058.05,729.154C1026.66,710.359 1005.64,676.021 1005.64,636.813C1005.64,606.732 1018.01,579.517 1037.96,560.001C1045.37,558.232 1053.11,557.311 1061.07,557.311C1105.89,557.311 1143.94,586.555 1157.13,626.997C1137.09,671.317 1101.9,707.521 1058.05,729.154Z" style="fill:rgb(34,35,37);"/>
        </g>
        <g id="Right-wing-glare" serif:id="Right wing glare" transform="matrix(0.921954,0,0,1.28522,478.513,-186.189)">
            <ellipse cx="654.572" cy="626.503" rx="62.885" ry="33.217" style="fill:rgb(43,44,46);"/>
        </g>
        <g id="Beak" transform="matrix(0.996248,0,0,0.996248,4.411,2.02626)">
            <g transform="matrix(0.171668,-0.887358,0.834899,0.161519,271.991,1091.13)">
                <path d="M759.511,472.062C760.043,470.181 761.673,468.893 763.522,468.893C765.37,468.893 767,470.181 767.532,472.062C776.945,505.337 799.661,585.643 799.661,585.643L776.035,621.881L727.382,585.643C727.382,585.643 750.098,505.337 759.511,472.062Z" style="fill:rgb(36,36,38);"/>
            </g>
            <g transform="matrix(0.171668,-0.887358,0.834899,0.161519,271.991,1091.13)">
                <path d="M765.025,469.172C766.15,469.731 767.206,470.485 767.731,472.72L799.661,585.643L776.035,621.881L765.025,469.172Z" style="fill:rgb(44,45,47);"/>
            </g>
            <g transform="matrix(0.171668,-0.887358,0.834899,0.161519,271.991,1091.13)">
                <path d="M765.025,469.172C766.15,469.731 767.206,470.485 767.731,472.72L789.877,550.032L772.189,568.533L765.025,469.172Z" style="fill:rgb(56,56,64);"/>
            </g>
        </g>
        <g id="Eye">
            <g id="Eye-white" serif:id="Eye white" transform="matrix(0.913302,0,0,0.913302,76.0766,38.1678)">
                <circle cx="990.896" cy="521.669" r="79.342" style="fill:white;"/>
            </g>
            <g id="Eye-shadow" serif:id="Eye shadow" transform="matrix(1.34486,0,0,1.34486,-326.612,-141.162)">
                <circle cx="967.866" cy="479.553" r="21.866" style="fill:rgb(226,235,232);"/>
            </g>
            <g id="Eye-black" serif:id="Eye black" transform="matrix(0.957013,0,0,0.957013,45.4325,41.5632)">
                <circle cx="967.866" cy="479.553" r="21.866" style="fill:rgb(40,41,43);"/>
            </g>
            <g id="Eye-glare" serif:id="Eye glare" transform="matrix(0.917425,0,0,0.917425,78.7607,41.4321)">
                <circle cx="960.654" cy="493.766" r="6.376" style="fill:white;"/>
            </g>
        </g>
    </g>
</svg>
